<svg xmlns="http://www.w3.org/2000/svg" width="40" height="40" fill="none" viewBox="0 0 40 40"><path fill="url(#paint0_linear)" d="M20 40C31.0457 40 40 31.0457 40 20C40 8.95431 31.0457 0 20 0C8.95431 0 0 8.95431 0 20C0 31.0457 8.95431 40 20 40Z"/><path fill="#C8DAEA" d="M16.3334 29.1668C15.6855 29.1668 15.7956 28.9221 15.5721 28.3052L13.6667 22.0344L28.3334 13.3334"/><path fill="#A9C9DD" d="M16.3333 29.1666C16.8333 29.1666 17.0542 28.938 17.3333 28.6666L19.9999 26.0736L16.6736 24.0678"/><path fill="url(#paint1_linear)" d="M16.6733 24.0683L24.7333 30.0231C25.653 30.5306 26.3168 30.2678 26.5459 29.1692L29.8268 13.7087C30.1627 12.362 29.3134 11.7512 28.4335 12.1506L9.16855 19.5791C7.85353 20.1066 7.8612 20.8402 8.92885 21.1671L13.8727 22.7102L25.3182 15.4894C25.8585 15.1617 26.3544 15.3379 25.9474 15.6991"/><defs><linearGradient id="paint0_linear" x1="26.668" x2="16.668" y1="6.668" y2="30" gradientUnits="userSpaceOnUse"><stop stop-color="#31AEFF"/><stop offset="1" stop-color="#1E80FF"/></linearGradient><linearGradient id="paint1_linear" x1="22.501" x2="25.631" y1="20" y2="27.122" gradientUnits="userSpaceOnUse"><stop stop-color="#EFF7FC"/><stop offset="1" stop-color="#fff"/></linearGradient></defs></svg>